<svg width="30" height="30" viewBox="0 0 30 30" fill="none" xmlns="http://www.w3.org/2000/svg">
<rect width="30" height="30" rx="6" fill="#8C96A0"/>
<rect width="30" height="30" rx="6" fill="black" fill-opacity="0.2"/>
<path d="M14.8067 20.34C14.6601 20.34 14.5401 20.2933 14.4467 20.2C14.3534 20.1067 14.3067 19.9867 14.3067 19.84V16.06H10.6067C10.4601 16.06 10.3401 16.0133 10.2467 15.92C10.1534 15.8267 10.1067 15.7133 10.1067 15.58V14.32C10.1067 14.1733 10.1534 14.0533 10.2467 13.96C10.3401 13.8667 10.4601 13.82 10.6067 13.82H14.3067V10.16C14.3067 10.0133 14.3534 9.89333 14.4467 9.8C14.5401 9.70667 14.6601 9.66 14.8067 9.66H16.1867C16.3334 9.66 16.4534 9.70667 16.5467 9.8C16.6401 9.89333 16.6867 10.0133 16.6867 10.16V13.82H20.3867C20.5201 13.82 20.6334 13.8667 20.7267 13.96C20.8201 14.0533 20.8667 14.1733 20.8667 14.32V15.58C20.8667 15.7133 20.8201 15.8267 20.7267 15.92C20.6334 16.0133 20.5201 16.06 20.3867 16.06H16.6867V19.84C16.6867 19.9867 16.6401 20.1067 16.5467 20.2C16.4534 20.2933 16.3334 20.34 16.1867 20.34H14.8067Z" fill="white"/>
</svg>
