<svg width="30" height="30" viewBox="0 0 30 30" fill="none" xmlns="http://www.w3.org/2000/svg">
<rect width="30" height="30" rx="6" fill="#8C96A0"/>
<rect width="30" height="30" rx="6" fill="black" fill-opacity="0.2"/>
<path d="M18.4928 19.9732C18.3891 20.0769 18.2713 20.1288 18.1393 20.1288C18.0073 20.1288 17.8894 20.0769 17.7857 19.9732L15.1129 17.3003L12.4966 19.9166C12.3929 20.0203 12.275 20.0722 12.143 20.0722C12.011 20.0722 11.8979 20.0251 11.8036 19.9308L10.9126 19.0398C10.8089 18.9361 10.7571 18.8183 10.7571 18.6863C10.7571 18.5543 10.8089 18.4364 10.9126 18.3327L13.5289 15.7164L10.9409 13.1284C10.8372 13.0247 10.7854 12.9069 10.7854 12.7749C10.7854 12.6429 10.8372 12.525 10.9409 12.4213L11.9167 11.4455C12.0204 11.3418 12.1383 11.2899 12.2703 11.2899C12.4023 11.2899 12.5201 11.3418 12.6238 11.4455L15.2119 14.0335L17.8281 11.4172C17.9224 11.3229 18.0356 11.2758 18.1676 11.2758C18.2996 11.2758 18.4174 11.3276 18.5211 11.4314L19.4121 12.3223C19.5063 12.4166 19.5535 12.5297 19.5535 12.6617C19.5535 12.7937 19.5063 12.9069 19.4121 13.0011L16.7958 15.6174L19.4686 18.2903C19.5723 18.394 19.6242 18.5119 19.6242 18.6438C19.6242 18.7758 19.5723 18.8937 19.4686 18.9974L18.4928 19.9732Z" fill="white"/>
</svg>
